<svg xmlns="http://www.w3.org/2000/svg" xmlns:xlink="http://www.w3.org/1999/xlink" width="317" height="176" version="1.1" viewBox="0 0 317 176"><title>contact-mobile-bottom</title><defs><linearGradient id="linearGradient-1" x1="30.994%" x2="69.006%" y1="0%" y2="100%"><stop offset="0%" stop-color="#4EB9FB"/><stop offset="100%" stop-color="#2683F5"/></linearGradient><linearGradient id="linearGradient-2" x1="31.569%" x2="68.431%" y1="0%" y2="100%"><stop offset="0%" stop-color="#4EB9FB"/><stop offset="100%" stop-color="#2683F5"/></linearGradient><linearGradient id="linearGradient-3" x1="79.858%" x2="23.572%" y1="52.424%" y2="62.26%"><stop offset="0%" stop-color="#1888CF"/><stop offset="100%" stop-color="#0352C2"/></linearGradient><linearGradient id="linearGradient-4" x1="29.337%" x2="70.663%" y1="0%" y2="100%"><stop offset="0%" stop-color="#4EB9FB"/><stop offset="100%" stop-color="#2683F5"/></linearGradient><linearGradient id="linearGradient-5" x1="79.858%" x2="23.572%" y1="52.613%" y2="63.217%"><stop offset="0%" stop-color="#1888CF"/><stop offset="100%" stop-color="#0352C2"/></linearGradient></defs><g id="Page-1" fill="none" fill-rule="evenodd" stroke="none" stroke-width="1"><g id="mobile---contact" transform="translate(-20.000000, -1034.000000)"><g id="contact-mobile-bottom" transform="translate(20.500000, 1034.000000)"><g id="Group-Copy-6"><polygon id="Rectangle" fill="url(#linearGradient-1)" points="26.5 32.645 51.1 17.2 51.1 41.655 26.5 57.1"/><polygon id="Rectangle-Copy-15" fill="#012FA8" points="0 32.645 24.6 17.2 24.6 41.655 0 57.1" transform="translate(12.300000, 37.150000) scale(-1, 1) translate(-12.300000, -37.150000)"/><polygon id="Rectangle-Copy-3" fill="#067ACB" points="1.2 15.45 25.65 0 50.1 15.45 25.65 30.9" transform="translate(25.650000, 15.450000) scale(-1, 1) translate(-25.650000, -15.450000)"/></g><polygon id="Rectangle" fill="url(#linearGradient-2)" points="262.5 141.677 296.5 120 296.5 154.323 262.5 176"/><polygon id="Rectangle-Copy-15" fill="#0237AE" points="227.5 141.677 261.5 120 261.5 154.323 227.5 176" transform="translate(244.500000, 148.000000) scale(-1, 1) translate(-244.500000, -148.000000)"/><polygon id="Rectangle-Copy-3" fill="url(#linearGradient-3)" points="227.5 119.5 262 98 296.5 119.5 262 141" transform="translate(262.000000, 119.500000) scale(-1, 1) translate(-262.000000, -119.500000)"/><polygon id="Rectangle" fill="url(#linearGradient-4)" points="297.5 99.839 315.5 89 315.5 106.161 297.5 117"/><polygon id="Rectangle-Copy-15" fill="#0237AE" points="279.5 99.839 297.5 89 297.5 106.161 279.5 117" transform="translate(288.500000, 103.000000) scale(-1, 1) translate(-288.500000, -103.000000)"/><polygon id="Rectangle-Copy-3" fill="url(#linearGradient-5)" points="279.5 88 296.5 77 313.5 88 296.5 99" transform="translate(296.500000, 88.000000) scale(-1, 1) translate(-296.500000, -88.000000)"/><polygon id="Rectangle" fill="url(#linearGradient-4)" points="167.5 97.839 185.5 87 185.5 104.161 167.5 115"/><polygon id="Rectangle-Copy-15" fill="#0237AE" points="149.5 97.839 167.5 87 167.5 104.161 149.5 115" transform="translate(158.500000, 101.000000) scale(-1, 1) translate(-158.500000, -101.000000)"/><polygon id="Rectangle-Copy-3" fill="#0237AE" points="150.5 86 167.5 75 184.5 86 167.5 97" transform="translate(167.500000, 86.000000) scale(-1, 1) translate(-167.500000, -86.000000)"/></g></g></g></svg>