<svg xmlns="http://www.w3.org/2000/svg" xmlns:xlink="http://www.w3.org/1999/xlink" width="100%" height="100%" version="1.1" viewBox="0 0 2037 2009" xml:space="preserve" style="fill-rule:evenodd;clip-rule:evenodd;stroke-linejoin:round;stroke-miterlimit:2"><rect id="Artboard1" width="2036.93" height="2008.21" x="0" y="0" style="fill:none"/><clipPath id="_clip1"><rect width="2036.93" height="2008.21" x="0" y="0"/></clipPath><g clip-path="url(#_clip1)"><g><path d="M1009.72,221.583l341.667,-214.516l0,339.65l-341.667,214.516l0,-339.65Zm-1003.33,1279.6l273.333,-171.612l0,271.72l-273.333,171.613l0,-271.721Zm270,-283.225l110,-68.387l0,108.279l-110,68.387l0,-108.279Z" style="fill:#5852e6"/><path d="M413.891,1868.22l145.833,-90.321l0,143.012l-145.833,90.321l0,-143.012Z" style="fill:#4b5fea"/><path d="M829.724,1601.23l-271.667,-171.666l-271.666,171.666l271.666,171.667l271.667,-171.667Z" style="fill:#3278f2"/><path d="M1351.39,1413.25l-341.667,-214.517l0,339.65l341.667,214.517l0,-339.65Z" style="fill:#5458e8"/><path d="M1384.72,854.983l-339.583,-214.583l-339.584,214.583l339.584,214.584l339.583,-214.584Z" style="fill:#3a70f0"/><path d="M2030.56,1413.32l-339.583,-214.584l-339.583,214.584l339.583,214.583l339.583,-214.583Z" style="fill:#3278f2"/></g><g><path id="b" d="M1828.62,435.668c0,-22.996 -18.67,-41.666 -41.667,-41.666l-1366.67,0c-22.997,0 -41.667,18.67 -41.667,41.666l0,812.5c0,22.997 18.67,41.667 41.667,41.667l1366.67,0c22.997,0 41.667,-18.67 41.667,-41.667l0,-812.5Z"/><path id="b1" d="M1828.62,435.668c0,-22.996 -18.67,-41.666 -41.667,-41.666l-1366.67,0c-22.997,0 -41.667,18.67 -41.667,41.666l0,812.5c0,22.997 18.67,41.667 41.667,41.667l1366.67,0c22.997,0 41.667,-18.67 41.667,-41.667l0,-812.5Z" style="fill:#1e252f"/><circle cx="464.035" cy="466.918" r="14.583" style="fill:#5b55e8"/><circle cx="530.701" cy="466.918" r="14.583" style="fill:#5b55e8"/><circle cx="597.368" cy="466.918" r="14.583" style="fill:#5b55e8"/><g><text x="449.451" y="681.502" style="font-family:'ArialMT','Arial',sans-serif;font-size:66.667px;fill:#07a7fd">~</text><text x="546.118" y="681.502" style="font-family:'ArialMT','Arial',sans-serif;font-size:66.667px;fill:#ee4f5d">$</text><text x="594.451" y="681.502" style="font-family:'ArialMT','Arial',sans-serif;font-size:66.667px;fill:#5b55e8">t<tspan x="614.307 652.717 676.251 699.785 738.195 776.605 800.139 838.549 876.959" y="681.502 681.502 681.502 681.502 681.502 681.502 681.502 681.502 681.502">erragrunt</tspan></text><text x="1174.45" y="681.502" style="font-family:'ArialMT','Arial',sans-serif;font-size:66.667px;fill:#07a7fd">a<tspan x="1212.86 1251.27 1289.68 1305.83 1340.49 1364.03 1402.44 1418.58" y="681.502 681.502 681.502 681.502 681.502 681.502 681.502 681.502">pply-all</tspan></text></g><g><text x="449.451" y="844.002" style="font-family:'ArialMT','Arial',sans-serif;font-size:66.667px;fill:#07a7fd">~</text><text x="546.118" y="844.002" style="font-family:'ArialMT','Arial',sans-serif;font-size:66.667px;fill:#ee4f5d">$</text><text x="594.451" y="844.002" style="font-family:'ArialMT','Arial',sans-serif;font-size:66.667px;fill:#5b55e8">t<tspan x="614.307 652.717 676.251 699.785 738.195 776.605 800.139 838.549 876.959" y="844.002 844.002 844.002 844.002 844.002 844.002 844.002 844.002 844.002">erragrunt</tspan></text><text x="1174.45" y="844.002" style="font-family:'ArialMT','Arial',sans-serif;font-size:66.667px;fill:#07a7fd">d<tspan x="1212.86 1251.27 1285.94 1305.79 1329.33 1367.74 1402.4 1425.94 1464.35 1480.49" y="844.002 844.002 844.002 844.002 844.002 844.002 844.002 844.002 844.002 844.002">estroy-all</tspan></text></g><g><text x="449.451" y="1006.5" style="font-family:'ArialMT','Arial',sans-serif;font-size:66.667px;fill:#07a7fd">~</text><text x="546.118" y="1006.5" style="font-family:'ArialMT','Arial',sans-serif;font-size:66.667px;fill:#ee4f5d">$</text><text x="594.451" y="1006.5" style="font-family:'ArialMT','Arial',sans-serif;font-size:66.667px;fill:#5b55e8">t<tspan x="614.307 652.717 676.251 699.785 738.195 776.605 800.139 838.549 876.959" y="1006.5 1006.5 1006.5 1006.5 1006.5 1006.5 1006.5 1006.5 1006.5">erragrunt</tspan></text><text x="1174.45" y="1006.5" style="font-family:'ArialMT','Arial',sans-serif;font-size:66.667px;fill:#07a7fd">p<tspan x="1212.86 1229.01 1267.42 1305.83 1329.36 1367.77 1383.91" y="1006.5 1006.5 1006.5 1006.5 1006.5 1006.5 1006.5">lan-all</tspan></text></g><g><text x="449.451" y="1169" style="font-family:'ArialMT','Arial',sans-serif;font-size:66.667px;fill:#07a7fd">~</text><text x="546.118" y="1169" style="font-family:'ArialMT','Arial',sans-serif;font-size:66.667px;fill:#ee4f5d">$</text><text x="594.451" y="1169" style="font-family:'ArialMT','Arial',sans-serif;font-size:66.667px;fill:#5b55e8">t<tspan x="614.307 652.717 676.251 699.785 738.195 776.605 800.139 838.549 876.959" y="1169 1169 1169 1169 1169 1169 1169 1169 1169">erragrunt</tspan></text><text x="1174.45" y="1169" style="font-family:'ArialMT','Arial',sans-serif;font-size:66.667px;fill:#07a7fd">o<tspan x="1212.86 1251.27 1271.13 1309.54 1347.95 1367.8 1391.34 1429.75 1445.89" y="1169 1169 1169 1169 1169 1169 1169 1169 1169">utput-all</tspan></text></g></g></g></svg>