<svg xmlns="http://www.w3.org/2000/svg" xmlns:xlink="http://www.w3.org/1999/xlink" width="247" height="349" version="1.1" viewBox="0 0 247 349"><title>top_left</title><desc>Created with Sketch.</desc><g id="Page-1" fill="none" fill-rule="evenodd" stroke="none" stroke-width="1"><g id="top_left"><polygon id="Rectangle-Copy-3" fill="#5852E6" points="0 127.228 80 77 80 156.528 0 206.756"/><polygon id="Rectangle-Copy-5" fill="#5458E8" points="0 267.484 82 216 82 297.516 0 349" transform="translate(41.000000, 282.500000) scale(-1, 1) translate(-41.000000, -282.500000)"/><polygon id="Rectangle-Copy-15" fill="#3A70F0" points="0 211.5 81.5 160 163 211.5 81.5 263" transform="translate(81.500000, 211.500000) scale(-1, 1) translate(-81.500000, -211.500000)"/><polygon id="Rectangle-Copy-16" fill="#3278F2" points="84 157.5 165.5 106 247 157.5 165.5 209" transform="translate(165.500000, 157.500000) scale(-1, 1) translate(-165.500000, -157.500000)"/><polygon id="Rectangle-Copy-17" fill="#5457E8" points="84 51.5 165.5 0 247 51.5 165.5 103" transform="translate(165.500000, 51.500000) scale(-1, 1) translate(-165.500000, -51.500000)"/></g></g></svg>