<svg xmlns="http://www.w3.org/2000/svg" xmlns:xlink="http://www.w3.org/1999/xlink" width="156" height="118" version="1.1" viewBox="0 0 156 118"><title>Left</title><g id="Page-1" fill="none" fill-rule="evenodd" stroke="none" stroke-width="1"><g id="terragrunt-support" transform="translate(-253.000000, -1966.000000)"><g id="Left" transform="translate(253.000000, 1966.000000)"><g id="Group-3-Copy-3" transform="translate(43.000000, 0.000000)"><polygon id="Rectangle-Copy-21" fill="#5852E6" points=".114 48.219 37.553 24.74 37.553 61.915 .114 85.393"/><polygon id="Rectangle-Copy-27" fill="#5852E6" points="37.096 9.47 52.163 .114 52.163 14.928 37.096 24.284"/><polygon id="Rectangle-Copy-22" fill="#4B5FEA" points="55.929 98.434 75.904 86.077 75.904 105.643 55.929 118"/><polygon id="Rectangle-Copy-26" fill="#3278F2" points="38.466 61.907 75.676 38.421 112.886 61.907 75.676 85.393" transform="translate(75.675752, 61.907241) scale(-1, 1) translate(-75.675752, -61.907241)"/></g><polygon id="Rectangle-Copy-110" fill="#3A70F0" points="0 49 22.5 35 45 49 22.5 63" transform="translate(22.500000, 49.000000) scale(-1, 1) translate(-22.500000, -49.000000)"/></g></g></g></svg>