<svg xmlns="http://www.w3.org/2000/svg" xmlns:xlink="http://www.w3.org/1999/xlink" width="541" height="404" version="1.1" viewBox="0 0 541 404"><title>support-web-top</title><defs><linearGradient id="linearGradient-1" x1="30.994%" x2="69.006%" y1="0%" y2="100%"><stop offset="0%" stop-color="#4EB9FB"/><stop offset="100%" stop-color="#2683F5"/></linearGradient><linearGradient id="linearGradient-2" x1="79.858%" x2="23.572%" y1="52.492%" y2="62.605%"><stop offset="0%" stop-color="#1382C6"/><stop offset="100%" stop-color="#0352C2"/></linearGradient><linearGradient id="linearGradient-3" x1="79.858%" x2="23.572%" y1="52.492%" y2="62.605%"><stop offset="0%" stop-color="#1888CF"/><stop offset="100%" stop-color="#0352C2"/></linearGradient><linearGradient id="linearGradient-4" x1="30.994%" x2="69.006%" y1="0%" y2="100%"><stop offset="0%" stop-color="#4EB9FB"/><stop offset="100%" stop-color="#2683F5"/></linearGradient><linearGradient id="linearGradient-5" x1="79.858%" x2="23.572%" y1="52.492%" y2="62.605%"><stop offset="0%" stop-color="#1888CF"/><stop offset="100%" stop-color="#0352C2"/></linearGradient><linearGradient id="linearGradient-6" x1="79.858%" x2="23.572%" y1="52.492%" y2="62.605%"><stop offset="0%" stop-color="#0352C2"/><stop offset="100%" stop-color="#0352C2"/></linearGradient></defs><g id="Page-1" fill="none" fill-rule="evenodd" stroke="none" stroke-width="1"><g id="terratest-support" transform="translate(-72.000000, 34.000000)"><g id="support-web-top" transform="translate(72.000000, -34.000000)"><g id="Group" transform="translate(413.000000, 0.000000)"><polygon id="Rectangle" fill="url(#linearGradient-1)" points="51 63.29 100.2 32.4 100.2 81.31 51 112.2"/><polygon id="Rectangle-Copy-15" fill="#00229E" points="0 63.29 49.2 32.4 49.2 81.31 0 112.2" transform="translate(24.600000, 72.300000) scale(-1, 1) translate(-24.600000, -72.300000)"/><polygon id="Rectangle-Copy-3" fill="#0352C2" points="1.2 30.9 50.1 0 99 30.9 50.1 61.8" transform="translate(50.100000, 30.900000) scale(-1, 1) translate(-50.100000, -30.900000)"/></g><g id="Group-Copy" transform="translate(219.000000, 169.000000)"><polygon id="Rectangle" fill="url(#linearGradient-1)" points="51 63.29 100.2 32.4 100.2 81.31 51 112.2"/><polygon id="Rectangle-Copy-15" fill="#0136AD" points="0 63.29 49.2 32.4 49.2 81.31 0 112.2" transform="translate(24.600000, 72.300000) scale(-1, 1) translate(-24.600000, -72.300000)"/><polygon id="Rectangle-Copy-3" fill="url(#linearGradient-2)" points="1.2 30.9 50.1 0 99 30.9 50.1 61.8" transform="translate(50.100000, 30.900000) scale(-1, 1) translate(-50.100000, -30.900000)"/></g><g id="Group-Copy-2" transform="translate(414.000000, 291.000000)"><polygon id="Rectangle" fill="url(#linearGradient-1)" points="51 63.29 100.2 32.4 100.2 81.31 51 112.2"/><polygon id="Rectangle-Copy-15" fill="#0242B7" points="0 63.29 49.2 32.4 49.2 81.31 0 112.2" transform="translate(24.600000, 72.300000) scale(-1, 1) translate(-24.600000, -72.300000)"/><polygon id="Rectangle-Copy-3" fill="url(#linearGradient-3)" points="1.2 30.9 50.1 0 99 30.9 50.1 61.8" transform="translate(50.100000, 30.900000) scale(-1, 1) translate(-50.100000, -30.900000)"/></g><g id="Group-Copy-3" transform="translate(488.000000, 262.000000)"><polygon id="Rectangle" fill="url(#linearGradient-4)" points="26.5 32.645 51.1 17.2 51.1 41.655 26.5 57.1"/><polygon id="Rectangle-Copy-15" fill="#0136AD" points="0 32.645 24.6 17.2 24.6 41.655 0 57.1" transform="translate(12.300000, 37.150000) scale(-1, 1) translate(-12.300000, -37.150000)"/><polygon id="Rectangle-Copy-3" fill="url(#linearGradient-5)" points="1.2 15.45 25.65 0 50.1 15.45 25.65 30.9" transform="translate(25.650000, 15.450000) scale(-1, 1) translate(-25.650000, -15.450000)"/></g><g id="Group-Copy-4" transform="translate(462.000000, 218.000000)"><polygon id="Rectangle" fill="url(#linearGradient-4)" points="26.5 32.645 51.1 17.2 51.1 41.655 26.5 57.1"/><polygon id="Rectangle-Copy-15" fill="#012FA8" points="0 32.645 24.6 17.2 24.6 41.655 0 57.1" transform="translate(12.300000, 37.150000) scale(-1, 1) translate(-12.300000, -37.150000)"/><polygon id="Rectangle-Copy-3" fill="#067ACB" points="1.2 15.45 25.65 0 50.1 15.45 25.65 30.9" transform="translate(25.650000, 15.450000) scale(-1, 1) translate(-25.650000, -15.450000)"/></g><g id="Group-Copy-6" transform="translate(75.000000, 331.000000)"><polygon id="Rectangle" fill="url(#linearGradient-4)" points="26.5 32.645 51.1 17.2 51.1 41.655 26.5 57.1"/><polygon id="Rectangle-Copy-15" fill="#0127A2" points="0 32.645 24.6 17.2 24.6 41.655 0 57.1" transform="translate(12.300000, 37.150000) scale(-1, 1) translate(-12.300000, -37.150000)"/><polygon id="Rectangle-Copy-3" fill="#0352C2" points="1.2 15.45 25.65 0 50.1 15.45 25.65 30.9" transform="translate(25.650000, 15.450000) scale(-1, 1) translate(-25.650000, -15.450000)"/></g><g id="Group-Copy-7" transform="translate(0.000000, 282.000000)"><polygon id="Rectangle" fill="url(#linearGradient-4)" points="26.5 32.645 51.1 17.2 51.1 41.655 26.5 57.1"/><polygon id="Rectangle-Copy-15" fill="#0124A0" points="0 32.645 24.6 17.2 24.6 41.655 0 57.1" transform="translate(12.300000, 37.150000) scale(-1, 1) translate(-12.300000, -37.150000)"/><polygon id="Rectangle-Copy-3" fill="#0237AE" points="1.2 15.45 25.65 0 50.1 15.45 25.65 30.9" transform="translate(25.650000, 15.450000) scale(-1, 1) translate(-25.650000, -15.450000)"/></g><g id="Group-Copy-5" transform="translate(489.000000, 175.000000)"><polygon id="Rectangle" fill="url(#linearGradient-4)" points="26.5 32.645 51.1 17.2 51.1 41.655 26.5 57.1"/><polygon id="Rectangle-Copy-15" fill="#00229E" points="0 32.645 24.6 17.2 24.6 41.655 0 57.1" transform="translate(12.300000, 37.150000) scale(-1, 1) translate(-12.300000, -37.150000)"/><polygon id="Rectangle-Copy-3" fill="url(#linearGradient-6)" points="1.2 15.45 25.65 0 50.1 15.45 25.65 30.9" transform="translate(25.650000, 15.450000) scale(-1, 1) translate(-25.650000, -15.450000)"/></g><line id="Line-2" x1="324" x2="460" y1="200" y2="114" stroke="#07A7FD" stroke-dasharray="2 8" stroke-linecap="square" stroke-width="2"/><line id="Line-2-Copy-3" x1="131" x2="267" y1="368" y2="282" stroke="#07A7FD" stroke-dasharray="2 8" stroke-linecap="square" stroke-width="2"/><path id="Line-2-Copy-4" stroke="#07A7FD" stroke-dasharray="2 8" stroke-linecap="square" stroke-width="2" d="M54,318.443618 L124.28293,274 L199,325.443618"/><line id="Line-2-Copy" x1="272" x2="408" y1="320" y2="234" stroke="#07A7FD" stroke-dasharray="2 8" stroke-linecap="square" stroke-width="2" transform="translate(340.000000, 277.000000) scale(1, -1) translate(-340.000000, -277.000000)"/></g></g></g></svg>