<svg xmlns="http://www.w3.org/2000/svg" xmlns:xlink="http://www.w3.org/1999/xlink" width="80" height="145" version="1.1" viewBox="0 0 80 145"><title>support-mobile-top-2</title><defs><linearGradient id="linearGradient-1" x1="30.994%" x2="69.006%" y1="0%" y2="100%"><stop offset="0%" stop-color="#4EB9FB"/><stop offset="100%" stop-color="#2683F5"/></linearGradient><linearGradient id="linearGradient-2" x1="79.858%" x2="23.572%" y1="52.492%" y2="62.605%"><stop offset="0%" stop-color="#1888CF"/><stop offset="100%" stop-color="#0352C2"/></linearGradient><linearGradient id="linearGradient-3" x1="79.858%" x2="23.572%" y1="52.492%" y2="62.605%"><stop offset="0%" stop-color="#0352C2"/><stop offset="100%" stop-color="#0352C2"/></linearGradient></defs><g id="Page-1" fill="none" fill-rule="evenodd" stroke="none" stroke-width="1"><g id="mobile" transform="translate(-265.000000, -271.000000)"><g id="support-mobile-top-2" transform="translate(265.500000, 271.000000)"><g id="Group-Copy-3" transform="translate(26.000000, 87.000000)"><polygon id="Rectangle" fill="url(#linearGradient-1)" points="26.5 32.645 51.1 17.2 51.1 41.655 26.5 57.1"/><polygon id="Rectangle-Copy-15" fill="#0136AD" points="0 32.645 24.6 17.2 24.6 41.655 0 57.1" transform="translate(12.300000, 37.150000) scale(-1, 1) translate(-12.300000, -37.150000)"/><polygon id="Rectangle-Copy-3" fill="url(#linearGradient-2)" points="1.2 15.45 25.65 0 50.1 15.45 25.65 30.9" transform="translate(25.650000, 15.450000) scale(-1, 1) translate(-25.650000, -15.450000)"/></g><g id="Group-Copy-4" transform="translate(0.000000, 43.000000)"><polygon id="Rectangle" fill="url(#linearGradient-1)" points="26.5 32.645 51.1 17.2 51.1 41.655 26.5 57.1"/><polygon id="Rectangle-Copy-15" fill="#012FA8" points="0 32.645 24.6 17.2 24.6 41.655 0 57.1" transform="translate(12.300000, 37.150000) scale(-1, 1) translate(-12.300000, -37.150000)"/><polygon id="Rectangle-Copy-3" fill="#067ACB" points="1.2 15.45 25.65 0 50.1 15.45 25.65 30.9" transform="translate(25.650000, 15.450000) scale(-1, 1) translate(-25.650000, -15.450000)"/></g><g id="Group-Copy-5" transform="translate(27.000000, 0.000000)"><polygon id="Rectangle" fill="url(#linearGradient-1)" points="26.5 32.645 51.1 17.2 51.1 41.655 26.5 57.1"/><polygon id="Rectangle-Copy-15" fill="#00229E" points="0 32.645 24.6 17.2 24.6 41.655 0 57.1" transform="translate(12.300000, 37.150000) scale(-1, 1) translate(-12.300000, -37.150000)"/><polygon id="Rectangle-Copy-3" fill="url(#linearGradient-3)" points="1.2 15.45 25.65 0 50.1 15.45 25.65 30.9" transform="translate(25.650000, 15.450000) scale(-1, 1) translate(-25.650000, -15.450000)"/></g></g></g></g></svg>