<svg xmlns="http://www.w3.org/2000/svg" xmlns:xlink="http://www.w3.org/1999/xlink" width="166" height="101" version="1.1" viewBox="0 0 166 101"><title>support-mobile-bottom</title><defs><linearGradient id="linearGradient-1" x1="31.569%" x2="68.431%" y1="0%" y2="100%"><stop offset="0%" stop-color="#4EB9FB"/><stop offset="100%" stop-color="#2683F5"/></linearGradient><linearGradient id="linearGradient-2" x1="79.858%" x2="23.572%" y1="52.424%" y2="62.26%"><stop offset="0%" stop-color="#1888CF"/><stop offset="100%" stop-color="#0352C2"/></linearGradient><linearGradient id="linearGradient-3" x1="29.337%" x2="70.663%" y1="0%" y2="100%"><stop offset="0%" stop-color="#4EB9FB"/><stop offset="100%" stop-color="#2683F5"/></linearGradient><linearGradient id="linearGradient-4" x1="79.858%" x2="23.572%" y1="52.613%" y2="63.217%"><stop offset="0%" stop-color="#1888CF"/><stop offset="100%" stop-color="#0352C2"/></linearGradient></defs><g id="Page-1" fill="none" fill-rule="evenodd" stroke="none" stroke-width="1"><g id="mobile" transform="translate(-170.000000, -3603.000000)"><g id="support-mobile-bottom" transform="translate(170.000000, 3603.000000)"><polygon id="Rectangle" fill="url(#linearGradient-1)" points="113 66.677 147 45 147 79.323 113 101"/><polygon id="Rectangle-Copy-15" fill="#0237AE" points="78 66.677 112 45 112 79.323 78 101" transform="translate(95.000000, 73.000000) scale(-1, 1) translate(-95.000000, -73.000000)"/><polygon id="Rectangle-Copy-3" fill="url(#linearGradient-2)" points="78 44.5 112.5 23 147 44.5 112.5 66" transform="translate(112.500000, 44.500000) scale(-1, 1) translate(-112.500000, -44.500000)"/><polygon id="Rectangle" fill="url(#linearGradient-3)" points="148 24.839 166 14 166 31.161 148 42"/><polygon id="Rectangle-Copy-15" fill="#0237AE" points="130 24.839 148 14 148 31.161 130 42" transform="translate(139.000000, 28.000000) scale(-1, 1) translate(-139.000000, -28.000000)"/><polygon id="Rectangle-Copy-3" fill="url(#linearGradient-4)" points="130 13 147 2 164 13 147 24" transform="translate(147.000000, 13.000000) scale(-1, 1) translate(-147.000000, -13.000000)"/><polygon id="Rectangle" fill="url(#linearGradient-3)" points="18 22.839 36 12 36 29.161 18 40"/><polygon id="Rectangle-Copy-15" fill="#0237AE" points="0 22.839 18 12 18 29.161 0 40" transform="translate(9.000000, 26.000000) scale(-1, 1) translate(-9.000000, -26.000000)"/><polygon id="Rectangle-Copy-3" fill="#0237AE" points="1 11 18 0 35 11 18 22" transform="translate(18.000000, 11.000000) scale(-1, 1) translate(-18.000000, -11.000000)"/></g></g></g></svg>