<svg xmlns="http://www.w3.org/2000/svg" xmlns:xlink="http://www.w3.org/1999/xlink" width="303" height="106" version="1.1" viewBox="0 0 303 106"><title>support-mobile-pricing@1x</title><defs><linearGradient id="linearGradient-1" x1="30.469%" x2="69.531%" y1="0%" y2="100%"><stop offset="0%" stop-color="#4EB9FB"/><stop offset="100%" stop-color="#2683F5"/></linearGradient><linearGradient id="linearGradient-2" x1="30.469%" x2="69.531%" y1="0%" y2="100%"><stop offset="0%" stop-color="#4EB9FB"/><stop offset="100%" stop-color="#2683F5"/></linearGradient></defs><g id="Page-1" fill="none" fill-rule="evenodd" stroke="none" stroke-width="1"><g id="mobile" transform="translate(-30.000000, -1369.000000)"><g id="support-mobile-pricing" transform="translate(30.000000, 1369.000000)"><g id="Group-10" transform="translate(42.000000, 0.000000)"><polygon id="Rectangle" fill="url(#linearGradient-1)" points="31 37.581 61 19 61 48.419 31 67"/><polygon id="Rectangle-Copy-15" fill="#0237AE" points="0 37.581 30 19 30 48.419 0 67" transform="translate(15.000000, 43.000000) scale(-1, 1) translate(-15.000000, -43.000000)"/><polygon id="Rectangle-Copy-3" fill="#0692EA" points="1 18.5 30.5 0 60 18.5 30.5 37" transform="translate(30.500000, 18.500000) scale(-1, 1) translate(-30.500000, -18.500000)"/></g><polygon id="Rectangle" fill="url(#linearGradient-2)" points="15 87.29 30 78 30 92.71 15 102"/><polygon id="Rectangle-Copy-15" fill="#0237AE" points="0 87.29 15 78 15 92.71 0 102" transform="translate(7.500000, 90.000000) scale(-1, 1) translate(-7.500000, -90.000000)"/><polygon id="Rectangle-Copy-3" fill="#06A0FC" points="1 76.5 15.5 67 30 76.5 15.5 86" transform="translate(15.500000, 76.500000) scale(-1, 1) translate(-15.500000, -76.500000)"/><g id="Group-11" transform="translate(272.000000, 72.000000)"><polygon id="Rectangle" fill="url(#linearGradient-2)" points="16 19.29 31 10 31 24.71 16 34"/><polygon id="Rectangle-Copy-15" fill="#0237AE" points="0 19.29 15 10 15 24.71 0 34" transform="translate(7.500000, 22.000000) scale(-1, 1) translate(-7.500000, -22.000000)"/><polygon id="Rectangle-Copy-3" fill="#0679C9" points="1 9.5 15.5 0 30 9.5 15.5 19" transform="translate(15.500000, 9.500000) scale(-1, 1) translate(-15.500000, -9.500000)"/></g></g></g></g></svg>