<svg xmlns="http://www.w3.org/2000/svg" xmlns:xlink="http://www.w3.org/1999/xlink" width="81" height="61" version="1.1" viewBox="0 0 81 61"><title>support-mobile-pricing-2</title><g id="Page-1" fill="none" fill-rule="evenodd" stroke="none" stroke-width="1"><g id="mobile-copy" transform="translate(-265.000000, -1457.000000)"><g id="support-mobile-pricing-2" transform="translate(265.199993, 1457.712908)"><polygon id="Rectangle-Copy-28" fill="#4B5FEA" points="64.822 26.389 79.989 17 79.989 31.165 64.822 40.554" transform="translate(72.405568, 28.776882) scale(-1, 1) translate(-72.405568, -28.776882)"/><g id="Group-29" transform="translate(0.000000, 0.287092)"><polygon id="Rectangle-Copy-23" fill="#1D8CF8" points="12.8 33.258 38.8 17 38.8 42.742 12.8 59" transform="translate(25.800007, 38.000000) scale(-1, 1) translate(-25.800007, -38.000000)"/><polygon id="Rectangle-Copy-25" fill="#3A70F0" points="13.8 16.5 39.3 0 64.8 16.5 39.3 33" transform="translate(39.300007, 16.500000) scale(-1, 1) translate(-39.300007, -16.500000)"/><polygon id="Rectangle-Copy-36" fill="#07A7FD" points=".8 43.355 12.8 36 12.8 47.645 .8 55" transform="translate(6.800007, 45.500000) scale(-1, 1) translate(-6.800007, -45.500000)"/></g></g></g></g></svg>