<svg xmlns="http://www.w3.org/2000/svg" xmlns:xlink="http://www.w3.org/1999/xlink" width="344" height="124" version="1.1" viewBox="0 0 344 124"><title>support-mobile-links</title><g id="Page-1" fill="none" fill-rule="evenodd" stroke="none" stroke-width="1"><g id="mobile-copy" transform="translate(-20.000000, -3622.000000)"><g id="support-mobile-links" transform="translate(20.000000, 3622.000000)"><g id="tło_dół_3-copy" transform="translate(0.000000, 6.000000)"><polygon id="Rectangle-Copy-54" fill="#5458E8" points="33.6 63.639 66.4 43.2 66.4 75.561 33.6 96" transform="translate(49.999997, 69.599996) scale(-1, 1) translate(-49.999997, -69.599996)"/><polygon id="Rectangle-Copy-55" fill="#5B4DE5" points="0 42.839 32.8 22.4 32.8 54.761 0 75.2" transform="translate(16.399999, 48.799997) scale(-1, 1) translate(-16.399999, -48.799997)"/><polygon id="Rectangle-Copy-56" fill="#3A70F0" points="33.6 42 66 21.6 98.4 42 66 62.4" transform="translate(65.999996, 41.999997) scale(-1, 1) translate(-65.999996, -41.999997)"/><polygon id="Rectangle-Copy-57" fill="#3278F2" points=".8 20.4 33.2 0 65.6 20.4 33.2 40.8" transform="translate(33.199998, 20.399999) scale(-1, 1) translate(-33.199998, -20.399999)"/><polygon id="Rectangle-Copy-58" fill="#3A70F0" points=".8 97.2 33.2 76.8 65.6 97.2 33.2 117.6" transform="translate(33.199998, 97.199994) scale(-1, 1) translate(-33.199998, -97.199994)"/></g><polygon id="Rectangle-Copy-53" fill="#0BB9F2" points="266 24.5 305 0 344 24.5 305 49" transform="translate(305.000000, 24.500000) scale(-1, 1) translate(-305.000000, -24.500000)"/></g></g></g></svg>