<svg xmlns="http://www.w3.org/2000/svg" xmlns:xlink="http://www.w3.org/1999/xlink" width="124" height="199" version="1.1" viewBox="0 0 124 199"><title>terragrunt-mobile-top-1</title><g id="Page-1" fill="none" fill-rule="evenodd" stroke="none" stroke-width="1"><g id="mobile-copy" transform="translate(-224.000000, 31.000000)"><g id="terragrunt-mobile-top-1" transform="translate(224.000000, -31.000000)"><polygon id="Rectangle" fill="#5852E6" points=".5 63.742 41.5 38 41.5 78.758 .5 104.5"/><polygon id="Rectangle-Copy-15" fill="#5B4DE5" points="82 131.742 123 106 123 146.758 82 172.5" transform="translate(102.500000, 139.250000) scale(-1, 1) translate(-102.500000, -139.250000)"/><polygon id="Rectangle-Copy-2" fill="#3A70F0" points=".5 105.75 41.25 80 82 105.75 41.25 131.5" transform="translate(41.250000, 105.750000) scale(-1, 1) translate(-41.250000, -105.750000)"/><polygon id="Rectangle-Copy-4" fill="#3278F2" points="42.5 172.75 83.25 147 124 172.75 83.25 198.5" transform="translate(83.250000, 172.750000) scale(-1, 1) translate(-83.250000, -172.750000)"/><polygon id="Rectangle-Copy-14" fill="#5457E8" points="42.5 25.75 83.25 0 124 25.75 83.25 51.5" transform="translate(83.250000, 25.750000) scale(-1, 1) translate(-83.250000, -25.750000)"/></g></g></g></svg>